<svg width="1160" height="462" viewBox="0 0 1160 462" fill="none" xmlns="http://www.w3.org/2000/svg">
<path d="M72 190.4C79.3333 190.4 86.8 191.267 94.4 193C102 194.6 108.533 196.8 114 199.6C112.667 206.133 111.467 211.867 110.4 216.8C109.333 221.6 108.267 226.6 107.2 231.8H94.4L92.4 210C90.5333 207.333 87.6 205.333 83.6 204C79.7333 202.533 75.6667 201.8 71.4 201.8C66.2 201.8 61.5333 203.267 57.4 206.2C53.2667 209.133 51.2 213.4 51.2 219C51.2 223.4 52.8 227.133 56 230.2C59.3333 233.133 63.5333 235.867 68.6 238.4C73.8 240.8 79.2667 243.333 85 246C90.7333 248.667 96.1333 251.867 101.2 255.6C106.4 259.2 110.6 263.733 113.8 269.2C117.133 274.667 118.8 281.467 118.8 289.6C118.8 298.4 116.333 305.6 111.4 311.2C106.467 316.667 100.067 320.667 92.2 323.2C84.4667 325.733 76.2 327 67.4 327C59.2667 327 51.2667 326 43.4 324C35.5333 322 28.7333 319.2 23 315.6C24.4667 309.6 25.6667 304.267 26.6 299.6C27.6667 294.8 28.6667 289.133 29.6 282.6H42.6L45.4 308.6C48.4667 310.733 51.7333 312.4 55.2 313.6C58.8 314.8 62.5333 315.4 66.4 315.4C72.6667 315.4 78.1333 313.867 82.8 310.8C87.6 307.6 90 302.4 90 295.2C90 289.6 88.4 285.067 85.2 281.6C82.1333 278.133 78.1333 275.2 73.2 272.8C68.2667 270.4 63 268.067 57.4 265.8C51.9333 263.533 46.7333 260.867 41.8 257.8C36.8667 254.733 32.8 250.8 29.6 246C26.5333 241.2 25 235 25 227.4C25 219.133 27.1333 212.267 31.4 206.8C35.8 201.333 41.5333 197.267 48.6 194.6C55.8 191.8 63.6 190.4 72 190.4ZM232.773 193L234.973 200.8L217.373 205.6C217.24 219.733 217.107 231.6 216.973 241.2C216.973 250.667 216.973 256.933 216.973 260C216.973 268.667 216.973 276.067 216.973 282.2C216.973 288.333 216.973 293.8 216.973 298.6C217.107 303.4 217.24 308.267 217.373 313.2L234.973 317.4L232.773 325C225.573 324.6 215.44 324.4 202.373 324.4C196.24 324.4 190.707 324.467 185.773 324.6C180.973 324.733 176.507 324.867 172.373 325L169.773 317.4L187.373 313.2C187.64 301.867 187.84 291.533 187.973 282.2C188.107 272.867 188.173 263.2 188.173 253.2C188.173 246.267 188.107 238.933 187.973 231.2C187.84 223.467 187.64 214.933 187.373 205.6L169.773 200.8L172.173 193C176.44 193.267 181.173 193.533 186.373 193.8C191.573 193.933 197.24 194 203.373 194C208.707 194 214.04 193.867 219.373 193.6C224.707 193.333 229.173 193.133 232.773 193ZM276.173 251.4V265.8C264.573 265 252.973 264.6 241.373 264.6C236.04 264.6 230.773 264.733 225.573 265C220.373 265.133 215.24 265.333 210.173 265.6V251.6C215.24 251.867 220.373 252.133 225.573 252.4C230.773 252.533 236.04 252.6 241.373 252.6C252.973 252.6 264.573 252.2 276.173 251.4ZM314.173 193L316.373 200.8L298.773 205.6C298.773 215.733 298.707 224.933 298.573 233.2C298.573 241.333 298.507 249.067 298.373 256.4C298.373 263.6 298.373 270.867 298.373 278.2C298.373 283.533 298.373 289.067 298.373 294.8C298.507 300.533 298.64 306.667 298.773 313.2L316.373 317.4L314.173 325C306.973 324.6 296.973 324.4 284.173 324.4C278.04 324.4 272.44 324.467 267.373 324.6C262.44 324.733 257.907 324.867 253.773 325L251.173 317.4L268.773 313.2C269.04 301.867 269.24 291.6 269.373 282.4C269.64 273.2 269.773 263.8 269.773 254.2C269.773 247.133 269.64 239.667 269.373 231.8C269.24 223.933 269.04 215.2 268.773 205.6L251.173 200.8L253.573 193C257.707 193.267 262.44 193.533 267.773 193.8C273.107 193.933 278.84 194 284.973 194C290.307 194 295.573 193.867 300.773 193.6C306.107 193.333 310.573 193.133 314.173 193ZM427.861 191C438.128 191 447.194 192.867 455.061 196.6C462.928 200.333 469.528 205.4 474.861 211.8C480.328 218.067 484.461 225.2 487.261 233.2C490.061 241.067 491.461 249.2 491.461 257.6C491.461 266.8 490.194 275.533 487.661 283.8C485.128 292.067 481.261 299.467 476.061 306C470.994 312.533 464.461 317.667 456.461 321.4C448.594 325.133 439.328 327 428.661 327C417.994 327 408.594 325.133 400.461 321.4C392.461 317.533 385.794 312.4 380.461 306C375.128 299.467 371.128 292.067 368.461 283.8C365.794 275.4 364.461 266.6 364.461 257.4C364.461 245.4 366.728 234.4 371.261 224.4C375.928 214.267 382.928 206.2 392.261 200.2C401.728 194.067 413.594 191 427.861 191ZM463.861 265.8C463.861 257.533 462.861 249.6 460.861 242C458.994 234.4 456.328 227.667 452.861 221.8C449.394 215.8 445.194 211.067 440.261 207.6C435.461 204.133 430.061 202.4 424.061 202.4C416.594 202.4 410.461 204.733 405.661 209.4C400.994 213.933 397.528 219.867 395.261 227.2C393.128 234.533 392.061 242.467 392.061 251C392.061 259.267 392.994 267.267 394.861 275C396.861 282.733 399.661 289.667 403.261 295.8C406.861 301.933 411.128 306.8 416.061 310.4C420.994 313.867 426.394 315.6 432.261 315.6C439.861 315.6 445.928 313.267 450.461 308.6C455.128 303.8 458.528 297.6 460.661 290C462.794 282.4 463.861 274.333 463.861 265.8ZM607.23 193C622.163 193 633.23 196.467 640.43 203.4C647.63 210.2 651.23 219.2 651.23 230.4C651.23 238.933 649.096 246.467 644.83 253C640.696 259.4 634.696 264.4 626.83 268C619.096 271.6 609.83 273.4 599.03 273.4C596.63 273.4 593.696 273.2 590.23 272.8C586.763 272.4 583.096 271.8 579.23 271V258.4C583.63 259.333 587.363 260.133 590.43 260.8C593.63 261.333 596.43 261.6 598.83 261.6C600.696 261.6 602.43 261.533 604.03 261.4C605.63 261.133 607.163 260.867 608.63 260.6C612.896 257.8 616.03 253.933 618.03 249C620.163 243.933 621.23 238.6 621.23 233C621.23 228.2 620.496 223.667 619.03 219.4C617.563 215 615.363 211.467 612.43 208.8C609.496 206 605.896 204.6 601.63 204.6C598.963 204.6 596.496 204.8 594.23 205.2C591.963 205.467 589.963 205.733 588.23 206C588.23 209.733 588.23 214.6 588.23 220.6C588.23 226.467 588.23 232.6 588.23 239C588.23 245.4 588.23 251.333 588.23 256.8C588.23 262.267 588.23 266.467 588.23 269.4C588.23 273.933 588.23 277.6 588.23 280.4C588.23 283.067 588.23 285.333 588.23 287.2C588.23 288.933 588.23 290.8 588.23 292.8C588.23 294.667 588.23 297.133 588.23 300.2C588.23 303.133 588.23 307.133 588.23 312.2L610.23 317.4L607.43 325C600.496 324.6 589.096 324.4 573.23 324.4C566.696 324.4 560.963 324.467 556.03 324.6C551.096 324.733 546.563 324.867 542.43 325L539.43 317.4L558.03 313.2C558.296 307.2 558.496 300.467 558.63 293C558.763 285.4 558.83 277.933 558.83 270.6C558.963 263.267 559.03 257 559.03 251.8C559.03 244.867 558.963 239 558.83 234.2C558.83 229.267 558.763 224.667 558.63 220.4C558.496 216 558.296 211.133 558.03 205.8L540.23 200.6L542.43 193C546.563 193.133 550.163 193.267 553.23 193.4C556.296 193.533 559.363 193.667 562.43 193.8C565.63 193.8 569.163 193.8 573.03 193.8C577.163 193.8 580.896 193.733 584.23 193.6C587.563 193.467 590.963 193.333 594.43 193.2C598.03 193.067 602.296 193 607.23 193ZM765.258 193L767.858 200.8L749.658 205.6C749.658 216.933 749.591 226.933 749.458 235.6C749.458 244.267 749.458 252.467 749.458 260.2C749.458 267.8 749.458 275.8 749.458 284.2C749.458 292.6 749.524 302.267 749.658 313.2L767.858 317.4L765.258 325C758.058 324.6 747.924 324.4 734.858 324.4C728.724 324.4 723.058 324.467 717.858 324.6C712.658 324.733 707.991 324.867 703.858 325L701.258 317.4L719.658 313.2C719.924 302.4 720.124 292.8 720.258 284.4C720.524 276 720.658 268 720.658 260.4C720.658 252.667 720.591 244.467 720.458 235.8C720.324 227 720.058 216.933 719.658 205.6L701.258 200.8L703.858 193C709.058 193.267 714.124 193.467 719.058 193.6C723.991 193.733 729.524 193.8 735.658 193.8C741.124 193.8 746.524 193.733 751.858 193.6C757.191 193.333 761.658 193.133 765.258 193ZM862.973 193C870.173 204.067 877.573 214.6 885.173 224.6C892.773 234.467 900.507 244.333 908.373 254.2C916.373 264.067 924.507 274.4 932.773 285.2L929.573 327H927.573C919.307 315 911.573 304.267 904.373 294.8C897.307 285.333 890.507 276.6 883.973 268.6C877.44 260.467 870.973 252.467 864.573 244.6C858.173 236.6 851.573 228.067 844.773 219C845.44 214.067 846.84 209.933 848.973 206.6C851.24 203.267 853.707 200.533 856.373 198.4C859.04 196.267 861.24 194.467 862.973 193ZM862.973 193L849.573 211.4C849.573 214.333 849.573 219.667 849.573 227.4C849.573 235 849.573 243.6 849.573 253.2C849.573 261.467 849.773 270.267 850.173 279.6C850.573 288.933 851.24 300.133 852.173 313.2L872.373 317.4L869.573 325C865.973 324.733 861.64 324.6 856.573 324.6C851.507 324.467 846.773 324.4 842.373 324.4C838.373 324.4 834.04 324.467 829.373 324.6C824.84 324.733 820.507 324.867 816.373 325L813.773 317.4L833.973 313.2C834.64 302.4 835.107 292.067 835.373 282.2C835.773 272.2 835.973 262.4 835.973 252.8C835.973 244.933 835.84 237.2 835.573 229.6C835.44 221.867 835.24 214.067 834.973 206.2L814.173 200.8L816.573 193C824.84 193.4 832.973 193.6 840.973 193.6C844.173 193.6 847.973 193.533 852.373 193.4C856.907 193.267 860.44 193.133 862.973 193ZM957.773 193L960.573 200.8L942.973 205C942.173 219.133 941.573 232.2 941.173 244.2C940.907 256.2 940.773 268.133 940.773 280C940.773 287.467 940.84 295.067 940.973 302.8C941.107 310.4 941.24 318.467 941.373 327H928.773L926.373 318.4C926.773 311.6 927.04 305.333 927.173 299.6C927.44 293.733 927.573 287.333 927.573 280.4C927.573 269.333 927.307 257.467 926.773 244.8C926.373 232 925.64 218.733 924.573 205L907.173 200.8L909.573 193C913.707 193.133 917.64 193.333 921.373 193.6C925.107 193.733 929.04 193.8 933.173 193.8C937.44 193.8 941.707 193.733 945.973 193.6C950.24 193.467 954.173 193.267 957.773 193ZM1072.06 191C1082.32 191 1091.39 192.867 1099.26 196.6C1107.12 200.333 1113.72 205.4 1119.06 211.8C1124.52 218.067 1128.66 225.2 1131.46 233.2C1134.26 241.067 1135.66 249.2 1135.66 257.6C1135.66 266.8 1134.39 275.533 1131.86 283.8C1129.32 292.067 1125.46 299.467 1120.26 306C1115.19 312.533 1108.66 317.667 1100.66 321.4C1092.79 325.133 1083.52 327 1072.86 327C1062.19 327 1052.79 325.133 1044.66 321.4C1036.66 317.533 1029.99 312.4 1024.66 306C1019.32 299.467 1015.32 292.067 1012.66 283.8C1009.99 275.4 1008.66 266.6 1008.66 257.4C1008.66 245.4 1010.92 234.4 1015.46 224.4C1020.12 214.267 1027.12 206.2 1036.46 200.2C1045.92 194.067 1057.79 191 1072.06 191ZM1108.06 265.8C1108.06 257.533 1107.06 249.6 1105.06 242C1103.19 234.4 1100.52 227.667 1097.06 221.8C1093.59 215.8 1089.39 211.067 1084.46 207.6C1079.66 204.133 1074.26 202.4 1068.26 202.4C1060.79 202.4 1054.66 204.733 1049.86 209.4C1045.19 213.933 1041.72 219.867 1039.46 227.2C1037.32 234.533 1036.26 242.467 1036.26 251C1036.26 259.267 1037.19 267.267 1039.06 275C1041.06 282.733 1043.86 289.667 1047.46 295.8C1051.06 301.933 1055.32 306.8 1060.26 310.4C1065.19 313.867 1070.59 315.6 1076.46 315.6C1084.06 315.6 1090.12 313.267 1094.66 308.6C1099.32 303.8 1102.72 297.6 1104.86 290C1106.99 282.4 1108.06 274.333 1108.06 265.8Z" fill="#5A0834"/>
</svg>
